<?xml version="1.0" encoding="utf-8"?>
<!-- Generator: Adobe Illustrator 24.1.0, SVG Export Plug-In . SVG Version: 6.00 Build 0)  -->
<svg version="1.1" id="Layer_1" xmlns="http://www.w3.org/2000/svg" xmlns:xlink="http://www.w3.org/1999/xlink" x="0px" y="0px"
	 viewBox="0 0 1366 768" style="enable-background:new 0 0 1366 768;" xml:space="preserve">
<g>
	<path d="M428.9,253c29,0,57.5,0,86.7,0c0,1.6,0,3.3,0,4.9c0,45.1,0,90.2,0,135.3c0,8.7,1.6,17.1,6.2,24.6
		c7.6,12.6,21.8,18.4,38.3,15.8c14.2-2.2,24.9-12.5,28.1-27.5c1.1-5.4,1.7-11,1.7-16.6c0.1-43.7,0.1-87.4,0.1-131c0-1.7,0-3.4,0-5.4
		c29,0,57.6,0,86.5,0c0.1,1.6,0.2,3,0.2,4.4c0,46.2,0.2,92.5-0.1,138.7c-0.2,31.6-9.3,59.9-32.5,82.5
		c-17.5,17.1-38.9,26.7-62.9,30.7c-30.4,5-60.2,3.2-88.5-9.7c-35.7-16.3-56-44.4-62-82.9c-1.2-7.7-1.6-15.6-1.6-23.4
		c-0.1-45-0.1-89.9-0.1-134.9C428.9,256.9,428.9,255.2,428.9,253z"/>
	<path d="M1267.3,329.5c-26.9,0-53.6,0-80.3,0c-0.2-0.3-0.5-0.4-0.5-0.7c-2.4-20.3-26.2-30.2-42.8-18c-9.4,6.9-9.1,20.8,1.3,25.8
		c8.1,3.8,17.2,6,26,7.9c18.6,3.9,37.5,6.1,55.4,12.9c18.8,7.2,34.2,18.4,41,38c12.5,36,3.3,79.3-39.3,101.7
		c-23.6,12.4-49,15.6-75.2,14.5c-24-1-46.6-6.4-66.7-20.2c-22.8-15.7-36.2-42.1-35.5-69.8c27.5,0,55,0,82.8,0
		c0.3,1.9,0.4,3.8,0.8,5.7c2.5,12.6,12,20.1,26.7,20.7c6.5,0.3,12.8-0.9,18.4-4.6c11.2-7.5,10.9-22.5-1.3-27.9
		c-9.1-4-19.2-6.3-29.1-8.3c-16.7-3.3-33.5-5.7-49.4-12.2c-22.3-9.1-38.5-23.8-43.8-48.2c-8.4-38.7,7.2-72.8,43.3-89.2
		c40.2-18.3,81.6-18.7,122-0.1c28.1,12.9,43.6,35.9,46.2,67.1C1267.4,326.1,1267.3,327.5,1267.3,329.5z"/>
	<path d="M727.6,252.9c4,0,7.8,0,11.6,0c14.2,0,28.3,0.1,42.5-0.1c2.9,0,4.3,0.9,5.5,3.5c3.7,8,7.7,15.9,11.6,23.9
		c3.9-3.7,7.5-7.4,11.5-10.6c15.9-13,34.6-17.5,54.7-17.8c8.5-0.1,17.1,0,25.9,0c0,26.5,0,52.6,0,79.2c-1.7,0-3.3,0-5,0
		c-13.1,0.2-26.3-0.3-39.4,0.9c-18.6,1.7-28.8,12.2-31.4,30.6c-0.7,4.5-1,9.1-1,13.6c-0.1,40.7,0,81.3,0,122c0,1.7,0,3.4,0,5.4
		c-28.9,0-57.5,0-86.4,0C727.6,420.1,727.6,336.7,727.6,252.9z"/>
	<g>
		<path d="M923.9,253.1c28.9,0,57.4,0,86.2,0c0,83.5,0,166.8,0,250.4c-28.7,0-57.3,0-86.2,0C923.9,420.1,923.9,336.8,923.9,253.1z"
			/>
		<path d="M924.5,221.4c0-24.5,0-48.6,0-72.9c28.3,0,56.4,0,84.8,0c0,24.2,0,48.4,0,72.9C981.2,221.4,953,221.4,924.5,221.4z"/>
	</g>
	<g>
		<path d="M377.8,503.3c-1.6,0.1-3,0.2-4.3,0.2c-19.4,0-38.9-0.1-58.3,0.1c-3.2,0-5-0.7-5.9-3.9c-0.8-2.8-2.3-5.5-3.6-8.5
			c-35.1,22.3-72.8,28.9-112.9,17.8c-30.7-8.5-55.3-26.1-73.8-52c-37-51.9-32.6-122.6,10.4-169.8c43.1-47.3,117.8-60.6,177.4-20.5
			c1.8-3.9,3.4-7.8,5.4-11.6c0.6-1.1,2.2-2.4,3.4-2.4c20.2-0.1,40.3-0.1,60.5-0.1c0.5,0,1.1,0.2,1.8,0.4
			C377.8,336.4,377.8,419.7,377.8,503.3z M304.4,281.3c-0.3-5.4,1.4-10-4.5-13.8c-51.9-32.5-120.4-24.9-163.2,18.6
			c-56.5,57.4-49.5,149.6,15,197.7c43.5,32.4,103.3,34.4,148.8,4.9c1.2-0.8,2.7-2,2.9-3.2c0.4-2.8,0.1-5.8,0.1-9.1
			c-57.2,41.9-130.8,26-168.6-20.5c-37.2-45.7-36.5-111.7,1.5-156.5C175.4,253.4,248.2,239.6,304.4,281.3z M304,297.7
			c0.9-6,0.8-10.5-4.8-14.4c-26.5-18.3-55.4-26-87.3-21c-64.7,10.1-108.6,69.3-98.6,133.9c13.4,86,111.3,128.6,183.8,78.8
			c5.9-4,7.6-8.5,6-14.8C251.3,505.9,179.8,490,145.9,449c-34.6-41.6-33.8-102.4,1.7-142.9C183.7,264.8,254.4,253.2,304,297.7z
			 M303.5,441.3c-39.7,44.5-103.6,42.9-141.1,6.6c-36.3-35.2-39.4-92.5-6.4-131.5c16.8-19.9,38.4-31.4,64.3-33.7
			c33.2-3,60.9,8.8,83.7,33.3c-0.5-4.6,2.3-9.4-2-13.3c-24.5-22.4-53.4-32.2-86.3-27.8c-57.8,7.7-98.2,60.7-89.7,118.4
			c6.1,41,29.4,69.7,68.3,83.8c39.5,14.3,75.6,5.8,107.1-21.9c1-0.9,1.9-2.5,2-3.9C303.7,448.1,303.5,445.1,303.5,441.3z
			 M303.2,419.2c-27.9,47.5-87.4,55.1-125.5,24.8c-37.2-29.6-42.5-84.7-11.1-120.4c15.3-17.4,34.8-27.4,58-28.5
			c35-1.6,61.1,13.9,79.2,43.5c2.4-9.9-0.8-17.4-7.9-24.2c-21.4-20.5-46.4-30.1-76-27.2c-50.2,4.9-88.2,51.9-81.5,101.8
			c5.1,38.1,26.4,64.6,62.8,76.7c36.2,12,68.2,2.6,95.6-23.9C303.3,435.3,304.9,428.3,303.2,419.2z M303.7,379.2c0.1,0,0.2,0,0.3,0
			c0-8.1,0.1-16.3-0.1-24.4c-0.1-2.6-0.5-5.4-1.6-7.9c-15.5-35.8-55.4-55.1-93.1-44.9c-37.9,10.2-62.9,47.1-58.3,85.8
			c4.2,35,31.9,63.7,66.5,68.9c35.6,5.4,70.3-13.6,84.8-46.5c0.8-1.9,1.3-4.1,1.4-6.2C303.8,395.8,303.7,387.5,303.7,379.2z"/>
		<path d="M300.5,377.1c0.3,40.3-30.9,72.1-70.7,72.2c-39,0.1-70.9-31.4-71.2-70.6c-0.3-37.6,31.5-70,68.3-71
			C267.1,306.6,300.1,338.3,300.5,377.1z M163.3,378.6c0.1,36.4,30.1,66.5,66.4,66.2c39.9-0.3,67.2-33.5,66.4-67.9
			c-0.8-35.8-30.7-64.8-67.8-64.7C193,312.4,163.1,342.9,163.3,378.6z"/>
		<path d="M229.6,436.5c-32.1-0.1-58.4-26.3-58-58c0.5-35.9,30.2-58.7,59.9-57.9c31,0.8,56.3,26.8,56.1,58.9
			C287.5,410.8,261.3,436.6,229.6,436.5z M283.1,378.6c0-29.5-23.8-53.5-53.2-53.5c-29.6,0-54,24.2-53.8,53.5
			c0.2,29.4,24.3,53.4,53.6,53.4C259.1,432,283.1,408,283.1,378.6z"/>
		<path d="M229.5,423.6c-24.9-0.1-45.4-20.8-45.1-45.4c0.4-25.3,20.7-44.8,46.6-44.7c24.2,0.1,44,20.7,43.8,45.5
			C274.6,403.8,254.4,423.7,229.5,423.6z M270.2,378.6c0-22.5-18-40.6-40.4-40.6c-22.3,0-40.7,18.2-40.8,40.5
			c-0.1,22.1,18.4,40.7,40.6,40.7C251.9,419.2,270.2,401,270.2,378.6z"/>
		<path d="M229.8,410.7c-17.8,0.1-32.6-14.5-32.5-32.3c0.1-17.3,14.4-31.9,31.4-32.1c18.7-0.1,33.1,13.6,33.2,31.8
			C262.1,396.3,247.9,410.6,229.8,410.7z M257.3,378.4c0-15.2-12.3-27.5-27.4-27.6c-15.3-0.1-27.9,12.4-28,27.6
			c-0.1,15.1,12.7,27.9,27.8,27.9C245,406.3,257.4,393.8,257.3,378.4z"/>
		<path d="M229.9,397.9c-10.7,0.1-19.4-8.4-19.7-19.1c-0.3-10.5,8.5-19.5,19.1-19.6c11.2-0.1,19.7,8.2,19.7,19.2
			C249.1,389.3,240.7,397.8,229.9,397.9z M244.5,378.7c0.1-8.3-6.6-15.1-14.8-15c-8,0-14.7,6.7-14.8,14.7
			c-0.1,8.1,6.8,15.1,14.9,15.1C237.8,393.4,244.4,386.7,244.5,378.7z"/>
	</g>
</g>
</svg>
